<svg width="960" height="600" viewBox="0 0 960 600" fill="none" xmlns="http://www.w3.org/2000/svg">
  <rect width="960" height="600" fill="#0F172A"/>
  <rect x="64" y="64" width="832" height="472" rx="28" fill="#1E293B" stroke="#334155" stroke-width="2"/>
  <rect x="104" y="112" width="220" height="376" rx="18" fill="#111827"/>
  <rect x="360" y="112" width="240" height="176" rx="18" fill="#0F172A" stroke="#334155"/>
  <rect x="632" y="112" width="224" height="176" rx="18" fill="#0F172A" stroke="#334155"/>
  <rect x="360" y="320" width="496" height="168" rx="18" fill="#0F172A" stroke="#334155"/>
  <path d="M396 220H436L456 172L492 252L524 204H568" stroke="#38BDF8" stroke-width="10" stroke-linecap="round" stroke-linejoin="round"/>
  <circle cx="744" cy="200" r="54" fill="#2563EB"/>
  <path d="M704 416H812" stroke="#38BDF8" stroke-width="12" stroke-linecap="round"/>
  <path d="M396 384H548" stroke="#94A3B8" stroke-width="12" stroke-linecap="round"/>
  <path d="M396 430H628" stroke="#334155" stroke-width="12" stroke-linecap="round"/>
  <path d="M132 160H264M132 216H286M132 272H240M132 380H286M132 436H226" stroke="#94A3B8" stroke-width="12" stroke-linecap="round"/>
  <text x="104" y="552" fill="#F8FAFC" font-family="Manrope, Arial, sans-serif" font-size="24" font-weight="800">ICU Monitoring Platform</text>
</svg>
