<svg width="960" height="600" viewBox="0 0 960 600" fill="none" xmlns="http://www.w3.org/2000/svg">
  <rect width="960" height="600" fill="#0F172A"/>
  <rect x="72" y="70" width="816" height="460" rx="28" fill="#1E293B" stroke="#334155" stroke-width="2"/>
  <rect x="118" y="118" width="360" height="276" rx="20" fill="#0F172A" stroke="#334155"/>
  <circle cx="298" cy="230" r="70" fill="#2563EB"/>
  <circle cx="298" cy="220" r="42" fill="#F8FAFC"/>
  <path d="M204 350C219 306 252 282 298 282C344 282 377 306 392 350" stroke="#38BDF8" stroke-width="12" stroke-linecap="round"/>
  <rect x="526" y="118" width="314" height="72" rx="16" fill="#0F172A" stroke="#334155"/>
  <rect x="526" y="222" width="314" height="72" rx="16" fill="#0F172A" stroke="#334155"/>
  <rect x="526" y="326" width="314" height="72" rx="16" fill="#0F172A" stroke="#334155"/>
  <path d="M560 154H736M560 258H790M560 362H704" stroke="#94A3B8" stroke-width="12" stroke-linecap="round"/>
  <path d="M790 154L812 176L850 136" stroke="#38BDF8" stroke-width="10" stroke-linecap="round" stroke-linejoin="round"/>
  <path d="M790 258L812 280L850 240" stroke="#38BDF8" stroke-width="10" stroke-linecap="round" stroke-linejoin="round"/>
  <path d="M120 452H476M526 452H840" stroke="#334155" stroke-width="12" stroke-linecap="round"/>
  <text x="118" y="552" fill="#F8FAFC" font-family="Manrope, Arial, sans-serif" font-size="24" font-weight="800">Exam Management and AI Proctoring</text>
</svg>
