<svg width="800" height="560" viewBox="0 0 800 560" fill="none" xmlns="http://www.w3.org/2000/svg">
  <rect width="800" height="560" rx="36" fill="#020617"/>
  <rect x="34" y="34" width="732" height="492" rx="28" fill="#0F172A"/>
  <rect x="90" y="100" width="620" height="364" rx="30" fill="#081120" stroke="#1E293B" stroke-width="2"/>
  <rect x="118" y="128" width="144" height="308" rx="22" fill="#0F172A"/>
  <rect x="144" y="166" width="92" height="14" rx="7" fill="#94A3B8" fill-opacity="0.18"/>
  <rect x="144" y="206" width="72" height="14" rx="7" fill="#3B82F6" fill-opacity="0.28"/>
  <rect x="144" y="246" width="84" height="14" rx="7" fill="#94A3B8" fill-opacity="0.18"/>
  <rect x="144" y="286" width="98" height="14" rx="7" fill="#94A3B8" fill-opacity="0.18"/>
  <rect x="284" y="128" width="398" height="136" rx="22" fill="#0F172A"/>
  <rect x="308" y="160" width="172" height="16" rx="8" fill="#06B6D4" fill-opacity="0.26"/>
  <rect x="308" y="194" width="344" height="12" rx="6" fill="#94A3B8" fill-opacity="0.14"/>
  <rect x="308" y="218" width="244" height="12" rx="6" fill="#94A3B8" fill-opacity="0.12"/>
  <rect x="284" y="284" width="184" height="152" rx="22" fill="#0F172A"/>
  <rect x="498" y="284" width="184" height="152" rx="22" fill="#0F172A"/>
  <circle cx="376" cy="360" r="34" fill="#3B82F6" fill-opacity="0.22" stroke="#3B82F6" stroke-width="3"/>
  <path d="M552 392L590 350L622 380L648 332" stroke="#8B5CF6" stroke-width="5" stroke-linecap="round" stroke-linejoin="round"/>
</svg>
