<svg width="960" height="600" viewBox="0 0 960 600" fill="none" xmlns="http://www.w3.org/2000/svg">
  <rect width="960" height="600" fill="#0F172A"/>
  <rect x="76" y="72" width="808" height="456" rx="28" fill="#1E293B" stroke="#334155" stroke-width="2"/>
  <rect x="124" y="124" width="236" height="352" rx="18" fill="#0F172A" stroke="#334155"/>
  <rect x="400" y="124" width="436" height="156" rx="18" fill="#0F172A" stroke="#334155"/>
  <rect x="400" y="320" width="196" height="156" rx="18" fill="#0F172A" stroke="#334155"/>
  <rect x="640" y="320" width="196" height="156" rx="18" fill="#0F172A" stroke="#334155"/>
  <path d="M164 180H300M164 232H280M164 284H318M164 392H286M164 436H248" stroke="#94A3B8" stroke-width="12" stroke-linecap="round"/>
  <path d="M448 200H582M448 236H742" stroke="#94A3B8" stroke-width="12" stroke-linecap="round"/>
  <path d="M704 190L752 238L800 190" stroke="#38BDF8" stroke-width="12" stroke-linecap="round" stroke-linejoin="round"/>
  <circle cx="498" cy="398" r="34" fill="#2563EB"/>
  <path d="M704 390H776M704 430H744" stroke="#38BDF8" stroke-width="12" stroke-linecap="round"/>
  <text x="124" y="552" fill="#F8FAFC" font-family="Manrope, Arial, sans-serif" font-size="24" font-weight="800">School Website and E-Learning System</text>
</svg>
