<svg width="800" height="560" viewBox="0 0 800 560" fill="none" xmlns="http://www.w3.org/2000/svg">
  <rect width="800" height="560" rx="36" fill="#020617"/>
  <rect x="34" y="34" width="732" height="492" rx="28" fill="#0F172A"/>
  <rect x="100" y="116" width="600" height="328" rx="24" fill="#07101F" stroke="#1E293B" stroke-width="2"/>
  <rect x="132" y="148" width="182" height="22" rx="11" fill="#3B82F6" fill-opacity="0.24"/>
  <rect x="132" y="194" width="536" height="16" rx="8" fill="#94A3B8" fill-opacity="0.14"/>
  <rect x="132" y="228" width="420" height="16" rx="8" fill="#94A3B8" fill-opacity="0.14"/>
  <rect x="132" y="278" width="536" height="104" rx="20" fill="#0F172A" stroke="#1E293B" stroke-width="2"/>
  <path d="M172 340C202 270 272 244 324 280C376 316 424 278 450 246C474 218 524 196 588 224" stroke="#06B6D4" stroke-width="5" stroke-linecap="round"/>
  <circle cx="324" cy="280" r="12" fill="#3B82F6"/>
  <circle cx="450" cy="246" r="12" fill="#06B6D4"/>
  <circle cx="588" cy="224" r="12" fill="#8B5CF6"/>
  <rect x="132" y="404" width="128" height="16" rx="8" fill="#22C55E" fill-opacity="0.26"/>
</svg>
