<svg width="800" height="560" viewBox="0 0 800 560" fill="none" xmlns="http://www.w3.org/2000/svg">
  <rect width="800" height="560" rx="36" fill="#020617"/>
  <rect x="34" y="34" width="732" height="492" rx="28" fill="#0F172A"/>
  <path d="M112 138C112 121.431 125.431 108 142 108H658C674.569 108 688 121.431 688 138V422C688 438.569 674.569 452 658 452H142C125.431 452 112 438.569 112 422V138Z" fill="#081120"/>
  <path d="M150 166L250 126L382 201L520 136L650 182V412L520 372L382 436L250 354L150 394V166Z" fill="#0E7490" fill-opacity="0.18" stroke="#06B6D4" stroke-width="3"/>
  <circle cx="258" cy="272" r="16" fill="#3B82F6"/>
  <circle cx="410" cy="228" r="18" fill="#06B6D4"/>
  <circle cx="554" cy="306" r="20" fill="#8B5CF6"/>
  <path d="M258 272L410 228L554 306" stroke="#94A3B8" stroke-width="2" stroke-dasharray="8 8"/>
  <rect x="154" y="74" width="178" height="18" rx="9" fill="#3B82F6" fill-opacity="0.3"/>
  <rect x="154" y="476" width="244" height="16" rx="8" fill="#94A3B8" fill-opacity="0.18"/>
  <rect x="154" y="502" width="132" height="12" rx="6" fill="#94A3B8" fill-opacity="0.12"/>
</svg>
